<?xml version="1.0" encoding="UTF-8"?>
<!DOCTYPE svg  PUBLIC '-//W3C//DTD SVG 1.1//EN'  'http://www.w3.org/Graphics/SVG/1.1/DTD/svg11.dtd'>
<svg enable-background="new 0 0 1474 1125.3" version="1.1" viewBox="0 0 1474 1125.3" xml:space="preserve" xmlns="http://www.w3.org/2000/svg">
<linearGradient id="a" x1="738.88" x2="738.88" y1="1108.8" y2="19.7" gradientUnits="userSpaceOnUse">
	<stop offset="0"/>
	<stop stop-color="#0F0F0F" offset="1"/>
</linearGradient>
<path d="m440.3 57.6c5.1-2.5 25.4-8.9 36.9-14s48.4-17.9 53.5-17.9 68.8 1.3 77.7-2.6c8.9-3.8 31.9-10.2 42.1 17.9 10.2 28 0 17.9-10.2 22.9-10.2 5.1 3.8 16.6 8.9 16.6s22.9 16.6 31.8 16.6 30.6 8.9 30.6 8.9 21.6 16.6 33.1 16.6 20.4 8.9 33.1-3.8 29.3-28 42-25.5c12.7 2.6 26.8 12.7 43.3 12.7 16.6 0 47.2-2.6 52.3 3.8s-34.4 28-31.9 33.1c2.6 5.1 7.7 3.8 20.4-11.5s31.8-15.3 47.1-19.1 23 20.4 25.5 28 14 21.7 22.9 38.2c8.9 16.6 17.8 39.5 28 57.3 10.2 17.9 16.6 44.6 26.8 56 10.2 11.5 19.1 30.6 25.4 45.9 6.4 15.3 21.7 30.6 26.8 31.8 5.1 1.3 26.7 30.5 28 38.2 1.2 7.6-7.6 24.2 12.7 25.5 20.4 1.3 38.2-8.9 44.6-11.5 6.4-2.5 56-21.7 62.4-14 6.4 7.6-8.9 40.8-10.2 49.7s-38.2 52.2-39.5 63.7c-1.2 11.5-22.9 31.9-36.9 34.4s-43.3 38.2-53.5 49.7-26.8 36.9-34.4 39.5-10.2 29.3-6.3 34.4c3.8 5.1 1.2 35.7 12.7 45.8 11.5 10.2 15.3 17.8 10.2 26.8-5.1 8.9 2.6 29.3 0 45.8-2.5 16.5-16.6 38.2-21.7 43.3s-36.9 14-47.1 26.8c-10.2 12.7-19.1 24.2-16.6 30.6s12.7 38.2 11.5 45.8c-1.2 7.7-25.4 17.8-35.7 22.9-10.2 5.1-5.1 15.3-2.5 25.5 2.5 10.2-17.9 26.8-26.8 35.7s-33.1 39.5-49.6 51c-16.6 11.5-35.7 20.4-52.3 19.1-16.5-1.3-48.4 0-54.8 6.3-6.4 6.4-15.3 5.1-28-1.2-12.7-6.4-14-15.3-15.3-29.3s-5.1-22.9-5.1-22.9-3.8-21.6-15.3-31.8-15.3-21.7-21.6-29.3c-6.4-7.6-2.5-24.2-3.8-38.2s-8.9-35.7-15.3-44.6-19.1-33.1-24.2-42.1c-5.1-8.9-11.5-26.7-10.2-52.2s19.1-39.5 29.3-47.2c10.2-7.6 1.3-17.8-7.6-33.1s1.3-40.8-6.4-49.7c-7.6-8.9-33.1-56.1-47.1-63.7s-15.3-10.2-7.6-28c7.6-17.9 0-35.7 12.7-47.1 12.7-11.5 6.4-19.1-7.6-26.8-14-7.6-8.9-11.5-20.4-2.5-11.5 8.9-26.8 14-35.7 5.1s-6.4-22.9-23-33.1-38.2 3.8-44.6 6.3c-6.4 2.6-24.2 14-42.1 16.6-17.8 2.6-30.6-1.3-48.4-1.3s-33.1 1.3-35.7 10.2c-2.5 8.9-6.3 14-17.8 5.1s-34.4-29.3-34.4-29.3-31.8-25.4-38.2-40.8c-6.4-15.3-17.8-25.5-42-36.9-24.2-11.5-10.2-24.2-12.7-36.9s-15.3-17.9-8.9-19.1c6.4-1.3 5.1-10.2 19.1-28s5.1-36.9 2.6-47.1c-2.6-10.2-15.3-25.5-2.6-42 12.7-16.6 25.5-52.2 35.7-62.4s35.7-24.2 49.7-30.6 5.1-22.9 12.7-42 19.1-28 23-28c3.8 0 17.9-13.2 33.1-21.6 11.5-6.6 38.3 1.1 43.4-1.4zm556.7 523.5c-3.5-5.5-25.5-3.8-29.3 2.6s-7.6 35.6 3.8 38.2c11.4 2.5 31.8-30.6 25.5-40.8z" fill="url(#a)"/>
</svg>
